<?xml version="1.0" encoding="iso-8859-1"?>
<!-- Generator: Adobe Illustrator 19.0.0, SVG Export Plug-In . SVG Version: 6.00 Build 0)  -->
<svg version="1.1" id="Layer_1" xmlns="http://www.w3.org/2000/svg" xmlns:xlink="http://www.w3.org/1999/xlink" x="0px" y="0px"
	 viewBox="0 0 512.001 512.001" style="enable-background:new 0 0 512.001 512.001;" xml:space="preserve">
<path style="fill:#FFD41D;" d="M169.747,214.391c9.281-57.202,58.892-100.87,118.716-100.87c45.071,0,84.357,24.792,104.952,61.484"
	/>
<g>
	<path style="fill:#EFC71D;" d="M314.753,168.636c-4.381,0-7.932-3.551-7.932-7.932v-44.299c0-4.38,3.55-7.932,7.932-7.932
		c4.381,0,7.932,3.551,7.932,7.932v44.299C322.684,165.084,319.133,168.636,314.753,168.636z"/>
	<path style="fill:#EFC71D;" d="M273.87,172.389c-3.563,0-6.803-2.419-7.694-6.033l-11.849-48.015c-1.05-4.252,1.547-8.551,5.8-9.6
		c4.253-1.05,8.552,1.547,9.6,5.801l11.849,48.015c1.05,4.252-1.547,8.551-5.8,9.6C275.139,172.314,274.5,172.389,273.87,172.389z"
		/>
	<path style="fill:#EFC71D;" d="M233.391,183.981c-2.645,0-5.23-1.322-6.734-3.731l-21.733-34.803
		c-2.32-3.715-1.19-8.608,2.526-10.929c3.716-2.32,8.608-1.189,10.929,2.526l21.733,34.803c2.32,3.715,1.19,8.608-2.526,10.929
		C236.278,183.591,234.825,183.981,233.391,183.981z"/>
</g>
<g>
	<path style="fill:#FFD41D;" d="M123.852,279.929c0.004-1.414-0.075-2.787-0.212-4.129c-1.614-17.798-13.068-39.964-32.195-59.091
		C61.388,186.651,23.805,175.5,7.502,191.803s-5.152,53.886,24.906,83.944c1.442,1.442,2.907,2.828,4.381,4.183
		c-1.474,1.355-2.939,2.74-4.381,4.183C2.351,314.17-8.8,351.753,7.502,368.056s53.886,5.151,83.944-24.906
		c19.127-19.127,30.581-41.293,32.195-59.091C123.776,282.716,123.855,281.344,123.852,279.929z"/>
	<path style="fill:#FFD41D;" d="M175.699,350.401l-14.664,25.587c-8.634,15.065,6.611,32.675,22.695,26.136
		c11.798-4.796,24.593-12.307,36.338-24.052"/>
</g>
<path style="fill:#71B4E0;" d="M512.001,279.933c-4.029,7.657-8.492,15.059-13.357,22.155
	c-40.112,58.609-107.509,97.061-183.895,97.061c-85.639,0-159.974-48.34-197.242-119.216
	c37.268-70.887,111.602-119.227,197.242-119.227S474.733,209.046,512.001,279.933z"/>
<path style="fill:#4C98C6;" d="M498.644,302.089c-40.112,58.609-107.509,97.061-183.895,97.061
	c-85.639,0-159.974-48.34-197.242-119.216C117.507,279.933,300.673,423.515,498.644,302.089z"/>
<path style="fill:#FFD41D;" d="M512.001,279.933c-4.029,7.657-8.481,15.049-13.346,22.145c0,0,0,0-0.011,0.011
	c-25.804,37.701-62.913,67.069-106.441,83.218c-9.687-10.998-17.883-23.34-24.26-36.707c-6.208-12.997-10.713-26.957-13.209-41.604
	c-1.512-8.799-2.295-17.841-2.295-27.062s0.783-18.264,2.295-27.062c5.066-29.717,18.369-56.631,37.469-78.321
	C443.927,193.733,486.588,231.593,512.001,279.933z"/>
<path style="fill:#EFC71D;" d="M498.644,302.089c-25.804,37.701-62.913,67.069-106.441,83.218
	c-9.687-10.998-17.883-23.34-24.26-36.707C409.43,343.586,453.656,329.68,498.644,302.089z"/>
<path style="fill:#FFD41D;" d="M336.756,252.867c-1.512,8.799-2.295,17.841-2.295,27.062c0,9.222,0.783,18.264,2.295,27.062
	c-16.36,14.224-37.733,22.832-61.126,22.832c-35.84,0-66.953-20.231-82.551-49.895c15.599-29.675,46.711-49.905,82.551-49.905
	C299.023,230.024,320.396,238.632,336.756,252.867z"/>
<circle style="fill:#FFFFFF;" cx="419.865" cy="276.599" r="34.897"/>
<path style="fill:#4D4D4D;" d="M419.857,292.449c-6.632,0-12.69-4.289-14.931-10.519c-2.242-6.231-0.251-13.416,4.874-17.611
	c5.125-4.195,12.521-4.739,18.203-1.338c5.678,3.398,8.718,10.207,7.411,16.704C433.942,287.003,427.332,292.449,419.857,292.449z"
	/>
<g>
</g>
<g>
</g>
<g>
</g>
<g>
</g>
<g>
</g>
<g>
</g>
<g>
</g>
<g>
</g>
<g>
</g>
<g>
</g>
<g>
</g>
<g>
</g>
<g>
</g>
<g>
</g>
<g>
</g>
</svg>
