<?xml version="1.0" encoding="iso-8859-1"?>
<!-- Generator: Adobe Illustrator 19.0.0, SVG Export Plug-In . SVG Version: 6.00 Build 0)  -->
<svg version="1.1" id="Layer_1" xmlns="http://www.w3.org/2000/svg" xmlns:xlink="http://www.w3.org/1999/xlink" x="0px" y="0px"
	 viewBox="0 0 512 512" style="enable-background:new 0 0 512 512;" xml:space="preserve">
<g>
	<circle style="fill:#54C0EB;" cx="236.8" cy="275.2" r="236.8"/>
	<path style="fill:#54C0EB;" d="M290.133,43.733C231.467,58.667,167.467,94.933,112,150.4
		C58.667,203.733,20.267,266.667,5.333,328.533C3.2,314.667,1.067,301.867,0,288c0-4.267,0-8.533,0-12.8
		C0,144,105.6,37.333,236.8,37.333c4.267,0,9.6,0,13.867,0C264.533,38.4,277.333,40.533,290.133,43.733z"/>
</g>
<g>
	<path style="fill:#84DBFF;" d="M128,397.867c-3.2-1.067-1.067-5.333-2.133-8.533c-1.067-4.267-5.333-6.4-9.6-6.4
		s-8.533,2.133-12.8,1.067c-6.4-1.067-10.667-8.533-16-12.8c-6.4-5.333-16-7.467-22.4-13.867c-3.2-4.267-4.267-9.6-6.4-13.867
		c-2.133-8.533-4.267-17.067-6.4-25.6c-1.067-2.133-1.067-4.267-3.2-6.4c-1.067-2.133-3.2-2.133-5.333-4.267
		c-9.6-6.4-14.933-20.267-11.733-32c2.133-8.533,7.467-16,13.867-23.467C54.4,241.067,64,230.4,74.667,221.867
		c4.267-3.2,7.467-5.333,10.667-9.6c9.6-9.6,10.667-23.467,4.267-34.133c-2.133-3.2-4.267-6.4-6.4-9.6
		c-3.2-5.333-3.2-12.8-5.333-18.133C75.733,144,69.333,138.667,64,139.733l-39.467,27.733C9.6,199.467,0,236.8,0,275.2
		C0,362.667,48,439.467,119.467,480c5.333-2.133,10.667-5.333,16-9.6c2.133-1.067,3.2-2.133,3.2-3.2
		c4.267-6.4-3.2-13.867-3.2-21.333S144,432,146.133,424.533c1.067-2.133,1.067-3.2,2.133-5.333
		C154.667,406.4,141.867,392.533,128,397.867C128,396.8,128,397.867,128,397.867z"/>
	<path style="fill:#84DBFF;" d="M170.667,64c-5.333,3.2-12.8,4.267-19.2,5.333C147.2,70.4,142.933,70.4,137.6,71.467
		c-2.133,0-3.2,1.067-4.267,1.067c-3.2,1.067-4.267,4.267-6.4,7.467c-2.133,4.267-5.333,9.6-7.467,13.867
		c-3.2,6.4-7.467,12.8-13.867,14.933c-7.467,3.2-16,0-20.267-6.4c-1.067-2.133-2.133-4.267-3.2-7.467
		C108.8,71.467,140.8,54.4,176,45.867c0,1.067,1.067,1.067,1.067,2.133C180.267,53.333,176,60.8,170.667,64z"/>
	<path style="fill:#84DBFF;" d="M445.867,309.333c-11.733-3.2,2.133-25.6-1.067-37.333s-7.467-22.4-16-30.933s-21.333-11.733-32-6.4
		c2.133,7.467,13.867,8.533,19.2,14.933c3.2,5.333,2.133,12.8-2.133,17.067s-9.6,8.533-13.867,12.8
		c-2.133,2.133-4.267,4.267-4.267,7.467s3.2,6.4,4.267,9.6c2.133,4.267,0,9.6-4.267,13.867c-3.2,3.2-7.467,6.4-11.733,8.533
		c-12.8,8.533-21.333,23.467-23.467,38.4c-1.067,6.4-1.067,11.733-2.133,18.133c-2.133,6.4-7.467,12.8-11.733,18.133
		c-5.333,9.6-7.467,20.267-11.733,29.867c-5.333,12.8-12.8,23.467-22.4,32c-4.267,4.267-9.6,8.533-16,9.6
		c-12.8,2.133-25.6-8.533-30.933-20.267c-5.333-10.667-6.4-23.467-4.267-35.2c2.133-10.667,8.533-23.467,1.067-32
		c-3.2-3.2-6.4-5.333-9.6-8.533c-11.733-11.733-7.467-30.933-9.6-46.933c0-2.133-1.067-5.333-3.2-7.467
		c-1.067-1.067-2.133-1.067-4.267-1.067c-12.8-2.133-26.667-1.067-39.467-2.133c-12.8-2.133-26.667-7.467-33.067-19.2
		c-5.333-9.6-5.333-21.333-5.333-32c0-8.533,1.067-17.067,5.333-24.533c5.333-9.6,16-13.867,25.6-18.133
		c17.067-7.467,35.2-16,54.4-11.733c10.667,2.133,20.267,7.467,30.933,8.533c6.4,1.067,12.8,0,18.133-1.067
		c18.133-3.2,35.2-7.467,52.267-14.933c9.6-4.267,21.333-11.733,19.2-22.4c-1.067-6.4-7.467-10.667-13.867-11.733
		c-6.4-1.067-12.8,0-19.2,3.2c-8.533,3.2-17.067,8.533-23.467,14.933c-2.133,2.133-5.333,5.333-8.533,5.333
		c-11.733,2.133-13.867-20.267-25.6-19.2c3.2,4.267,2.133,10.667-1.067,13.867c-4.267,3.2-10.667,3.2-14.933,0
		c-5.333-3.2-7.467-10.667-13.867-12.8c-6.4-2.133-12.8,2.133-18.133,5.333c-10.667,6.4-22.4,10.667-34.133,11.733
		c-7.467,1.067-16,0-19.2-6.4c-4.267-7.467,2.133-17.067,9.6-20.267c7.467-3.2,16-3.2,24.533-5.333C208,149.333,208,144,208,138.667
		c-9.6-5.333-22.4,0-30.933-6.4c-5.333-4.267-7.467-11.733-5.333-18.133c2.133-6.4,6.4-11.733,12.8-14.933
		c7.467-4.267,20.267-3.2,22.4,5.333c1.067,4.267-1.067,7.467-1.067,11.733c-1.067,4.267,1.067,8.533,4.267,9.6
		c1.067,0,3.2,0,5.333,0c22.4-5.333,45.867-9.6,68.267-14.933c4.267-1.067,8.533-2.133,11.733-4.267
		c3.2-3.2,4.267-8.533,2.133-11.733c-4.267-6.4-13.867,0-20.267,2.133c-10.667,3.2-20.267,1.067-28.8-1.067
		c-4.267-1.067-10.667-3.2-10.667-8.533c0-3.2,2.133-5.333,4.267-7.467C259.2,64,284.8,58.667,307.2,65.067
		c11.733,3.2,22.4,9.6,34.133,11.733c7.467,1.067,14.933,0,22.4-2.133c62.933,39.467,105.6,106.667,110.933,184.533
		c-2.133,3.2-5.333,6.4-7.467,9.6C459.733,279.467,473.6,316.8,445.867,309.333z"/>
</g>
<path style="fill:#FF7058;" d="M395.733,0c-64,0-116.267,52.267-116.267,116.267S378.667,249.6,395.733,339.2
	C412.8,249.6,512,180.267,512,116.267S459.733,0,395.733,0z"/>
<circle style="fill:#FFFFFF;" cx="395.733" cy="115.2" r="45.867"/>
<g>
</g>
<g>
</g>
<g>
</g>
<g>
</g>
<g>
</g>
<g>
</g>
<g>
</g>
<g>
</g>
<g>
</g>
<g>
</g>
<g>
</g>
<g>
</g>
<g>
</g>
<g>
</g>
<g>
</g>
</svg>
